<svg width="369" height="520" viewBox="0 0 369 520" fill="none" xmlns="http://www.w3.org/2000/svg">
<path d="M152.579 94.6427C130.473 61.5291 123.402 0 123.402 0C123.402 0 118.018 65.4467 92.8857 96.6945C70.4004 124.651 0 133.885 0 133.885C0 133.885 69.4422 141.044 92.8857 171.331C116.709 202.11 123.402 267 123.402 267C123.402 267 128.568 202.728 152.579 171.331C175.332 141.579 246 133.885 246 133.885C246 133.885 171.584 123.112 152.579 94.6427Z" fill="black"/>
<path d="M248.616 297.937C220.13 255.273 211.017 176 211.017 176C211.017 176 204.08 260.321 171.694 300.58C142.719 336.599 52 348.496 52 348.496C52 348.496 141.484 357.72 171.694 396.742C202.394 436.396 211.017 520 211.017 520C211.017 520 217.675 437.193 248.616 396.742C277.936 358.409 369 348.496 369 348.496C369 348.496 273.107 334.617 248.616 297.937Z" fill="black"/>
</svg>
