<svg width="444" height="572" viewBox="0 0 444 572" fill="none" xmlns="http://www.w3.org/2000/svg">
<path d="M350.579 94.6427C328.473 61.5291 321.402 0 321.402 0C321.402 0 316.018 65.4467 290.886 96.6945C268.4 124.651 198 133.885 198 133.885C198 133.885 267.442 141.044 290.886 171.331C314.709 202.11 321.402 267 321.402 267C321.402 267 326.568 202.728 350.579 171.331C373.332 141.579 444 133.885 444 133.885C444 133.885 369.584 123.112 350.579 94.6427Z" fill="black"/>
<path d="M152.579 227.643C130.473 194.529 123.402 133 123.402 133C123.402 133 118.018 198.447 92.8857 229.695C70.4004 257.651 0 266.885 0 266.885C0 266.885 69.4422 274.044 92.8857 304.331C116.709 335.11 123.402 400 123.402 400C123.402 400 128.568 335.728 152.579 304.331C175.332 274.579 246 266.885 246 266.885C246 266.885 171.584 256.112 152.579 227.643Z" fill="black"/>
<path d="M255.579 399.643C233.473 366.529 226.402 305 226.402 305C226.402 305 221.018 370.447 195.886 401.695C173.4 429.651 103 438.885 103 438.885C103 438.885 172.442 446.044 195.886 476.331C219.709 507.11 226.402 572 226.402 572C226.402 572 231.568 507.728 255.579 476.331C278.332 446.579 349 438.885 349 438.885C349 438.885 274.584 428.112 255.579 399.643Z" fill="black"/>
</svg>
