<svg width="514" height="527" viewBox="0 0 514 527" fill="none" xmlns="http://www.w3.org/2000/svg">
<path d="M324.579 354.643C302.473 321.529 295.402 260 295.402 260C295.402 260 290.018 325.447 264.886 356.695C242.4 384.651 172 393.885 172 393.885C172 393.885 241.442 401.044 264.886 431.331C288.709 462.11 295.402 527 295.402 527C295.402 527 300.568 462.728 324.579 431.331C347.332 401.579 418 393.885 418 393.885C418 393.885 343.584 383.112 324.579 354.643Z" fill="black"/>
<path d="M420.579 175.643C398.473 142.529 391.402 81 391.402 81C391.402 81 386.018 146.447 360.886 177.695C338.4 205.651 268 214.885 268 214.885C268 214.885 337.442 222.044 360.886 252.331C384.709 283.11 391.402 348 391.402 348C391.402 348 396.568 283.728 420.579 252.331C443.332 222.579 514 214.885 514 214.885C514 214.885 439.584 204.112 420.579 175.643Z" fill="black"/>
<path d="M152.579 288.643C130.473 255.529 123.402 194 123.402 194C123.402 194 118.018 259.447 92.8857 290.695C70.4004 318.651 0 327.885 0 327.885C0 327.885 69.4422 335.044 92.8857 365.331C116.709 396.11 123.402 461 123.402 461C123.402 461 128.568 396.728 152.579 365.331C175.332 335.579 246 327.885 246 327.885C246 327.885 171.584 317.112 152.579 288.643Z" fill="black"/>
<path d="M219.579 94.6427C197.473 61.5291 190.402 0 190.402 0C190.402 0 185.018 65.4467 159.886 96.6945C137.4 124.651 67 133.885 67 133.885C67 133.885 136.442 141.044 159.886 171.331C183.709 202.11 190.402 267 190.402 267C190.402 267 195.568 202.728 219.579 171.331C242.332 141.579 313 133.885 313 133.885C313 133.885 238.584 123.112 219.579 94.6427Z" fill="black"/>
</svg>
