<svg width="581" height="535" viewBox="0 0 581 535" fill="none" xmlns="http://www.w3.org/2000/svg">
<path d="M487.579 274.643C465.473 241.529 458.402 180 458.402 180C458.402 180 453.018 245.447 427.886 276.695C405.4 304.651 335 313.885 335 313.885C335 313.885 404.442 321.044 427.886 351.331C451.709 382.11 458.402 447 458.402 447C458.402 447 463.568 382.728 487.579 351.331C510.332 321.579 581 313.885 581 313.885C581 313.885 506.584 303.112 487.579 274.643Z" fill="black"/>
<path d="M318.579 362.643C296.473 329.529 289.402 268 289.402 268C289.402 268 284.018 333.447 258.886 364.695C236.4 392.651 166 401.885 166 401.885C166 401.885 235.442 409.044 258.886 439.331C282.709 470.11 289.402 535 289.402 535C289.402 535 294.568 470.728 318.579 439.331C341.332 409.579 412 401.885 412 401.885C412 401.885 337.584 391.112 318.579 362.643Z" fill="black"/>
<path d="M152.579 323.643C130.473 290.529 123.402 229 123.402 229C123.402 229 118.018 294.447 92.8857 325.695C70.4004 353.651 0 362.885 0 362.885C0 362.885 69.4422 370.044 92.8857 400.331C116.709 431.11 123.402 496 123.402 496C123.402 496 128.568 431.728 152.579 400.331C175.332 370.579 246 362.885 246 362.885C246 362.885 171.584 352.112 152.579 323.643Z" fill="black"/>
<path d="M393.579 94.6427C371.473 61.5291 364.402 0 364.402 0C364.402 0 359.018 65.4467 333.886 96.6945C311.4 124.651 241 133.885 241 133.885C241 133.885 310.442 141.044 333.886 171.331C357.709 202.11 364.402 267 364.402 267C364.402 267 369.568 202.728 393.579 171.331C416.332 141.579 487 133.885 487 133.885C487 133.885 412.584 123.112 393.579 94.6427Z" fill="black"/>
<path d="M195.579 133.643C173.473 100.529 166.402 39 166.402 39C166.402 39 161.018 104.447 135.886 135.695C113.4 163.651 43 172.885 43 172.885C43 172.885 112.442 180.044 135.886 210.331C159.709 241.11 166.402 306 166.402 306C166.402 306 171.568 241.728 195.579 210.331C218.332 180.579 289 172.885 289 172.885C289 172.885 214.584 162.112 195.579 133.643Z" fill="black"/>
</svg>
